<svg xmlns="http://www.w3.org/2000/svg" width="94.276" height="94.276" viewBox="0 0 94.276 94.276">
  <g id="impressao-icone" transform="translate(-824 -805.126)">
    <g id="_3d-print" data-name="3d-print" transform="translate(824 805.126)">
      <path id="Caminho_14" data-name="Caminho 14" d="M100.756,14.082H52.1V12.562a1.521,1.521,0,0,0-1.521-1.521H47.535V9.521A1.521,1.521,0,0,0,46.015,8H30.809a1.521,1.521,0,0,0-1.521,1.521v1.521H26.247a1.521,1.521,0,0,0-1.521,1.521v1.521H9.521A1.521,1.521,0,0,0,8,15.6v4.562a1.521,1.521,0,0,0,1.521,1.521H24.726v1.521a1.521,1.521,0,0,0,1.521,1.521h3.041v7.6a1.752,1.752,0,0,0,.076.473s0,.006,0,.008l3.041,9.124a1.521,1.521,0,0,0,1.443,1.04v4.562a1.522,1.522,0,0,0,.445,1.076l3.041,3.041a1.523,1.523,0,0,0,2.152,0l3.041-3.041a1.522,1.522,0,0,0,.445-1.076V42.973a1.521,1.521,0,0,0,1.443-1.04l3.041-9.124s0-.006,0-.008a1.788,1.788,0,0,0,.076-.473v-7.6h3.041A1.521,1.521,0,0,0,52.1,23.206V21.685h48.659a1.521,1.521,0,0,0,1.521-1.521V15.6A1.521,1.521,0,0,0,100.756,14.082ZM24.726,18.644H11.041V17.124H24.726Zm4.562,3.041H27.768v-7.6h1.521ZM39.932,46.906l-1.521,1.521-1.521-1.521V42.973h3.041Zm1.944-6.974h-6.93L32.919,33.85H43.9Zm2.617-9.124H32.329V11.041H44.494Zm4.562-9.124H47.535v-7.6h1.521Zm50.179-3.041H52.1V17.124H99.235Z" transform="translate(-8 -8)" fill="#fff"/>
      <path id="Caminho_15" data-name="Caminho 15" d="M145.521,53.685H151.6a1.521,1.521,0,0,0,1.521-1.521V41.521A1.521,1.521,0,0,0,151.6,40h-6.082A1.521,1.521,0,0,0,144,41.521V52.165A1.521,1.521,0,0,0,145.521,53.685Zm1.521-10.644h3.041v7.6h-3.041Z" transform="translate(-118.15 -33.918)" fill="#fff"/>
      <path id="Caminho_16" data-name="Caminho 16" d="M163.041,249.521a1.521,1.521,0,0,0-3.041,0v7.6a1.521,1.521,0,0,0,3.041,0Z" transform="translate(-131.109 -202.382)" fill="#fff"/>
      <path id="Caminho_17" data-name="Caminho 17" d="M373.629,327.795l-13.683-7.6a1.517,1.517,0,0,0-1.479,0l-13.683,7.6a1.531,1.531,0,0,0-.783,1.327v16.726a1.521,1.521,0,0,0,.781,1.329l13.685,7.6a1.512,1.512,0,0,0,1.471,0s0,0,.008,0l13.685-7.6a1.521,1.521,0,0,0,.781-1.329V329.121A1.494,1.494,0,0,0,373.629,327.795Zm-15.943,23.071-10.644-5.913V331.706l10.644,5.913Zm1.521-15.881-10.555-5.864,10.555-5.864,10.555,5.864Zm12.165,9.967-10.644,5.913V337.62l10.644-5.913Z" transform="translate(-280.135 -260.695)" fill="#fff"/>
      <path id="Caminho_18" data-name="Caminho 18" d="M205.629,327.795l-13.683-7.6a1.517,1.517,0,0,0-1.479,0l-13.683,7.6a1.531,1.531,0,0,0-.783,1.327v16.726a1.521,1.521,0,0,0,.781,1.329l13.685,7.6a1.512,1.512,0,0,0,1.471,0s0,0,.008,0l13.685-7.6a1.521,1.521,0,0,0,.781-1.329V329.121a1.494,1.494,0,0,0-.783-1.327Zm-15.943,23.071-10.644-5.913V331.706l10.644,5.913Zm1.521-15.881-10.555-5.864,10.555-5.864,10.555,5.864Zm12.165,9.967-10.644,5.913V337.62l10.644-5.913Z" transform="translate(-144.068 -260.695)" fill="#fff"/>
      <path id="Caminho_19" data-name="Caminho 19" d="M37.629,327.795l-13.683-7.6a1.517,1.517,0,0,0-1.479,0l-13.683,7.6A1.531,1.531,0,0,0,8,329.121v16.726a1.521,1.521,0,0,0,.781,1.329l13.685,7.6a1.512,1.512,0,0,0,1.471,0s0,0,.008,0l13.685-7.6a1.521,1.521,0,0,0,.781-1.329V329.121a1.494,1.494,0,0,0-.783-1.327ZM21.685,350.866l-10.644-5.913V331.706l10.644,5.913Zm1.521-15.881-10.555-5.864,10.555-5.864,10.555,5.864Zm12.165,9.967-10.644,5.913V337.62l10.644-5.913Z" transform="translate(-8 -260.695)" fill="#fff"/>
    </g>
  </g>
</svg>
