<svg xmlns="http://www.w3.org/2000/svg" width="41.709" height="41.7" viewBox="0 0 41.709 41.7">
  <path id="Icon_awesome-instagram" data-name="Icon awesome-instagram" d="M20.854,12.4A10.691,10.691,0,1,0,31.546,23.088,10.674,10.674,0,0,0,20.854,12.4Zm0,17.642A6.951,6.951,0,1,1,27.8,23.088,6.963,6.963,0,0,1,20.854,30.039Zm13.622-18.08a2.494,2.494,0,1,1-2.494-2.494A2.488,2.488,0,0,1,34.477,11.959Zm7.081,2.531c-.158-3.34-.921-6.3-3.368-8.737s-5.4-3.2-8.737-3.368c-3.443-.2-13.762-.2-17.2,0-3.331.158-6.29.921-8.737,3.359s-3.2,5.4-3.368,8.737c-.2,3.443-.2,13.762,0,17.2.158,3.34.921,6.3,3.368,8.737s5.4,3.2,8.737,3.368c3.443.2,13.762.2,17.2,0,3.34-.158,6.3-.921,8.737-3.368s3.2-5.4,3.368-8.737c.2-3.443.2-13.753,0-17.2ZM37.11,35.38a7.037,7.037,0,0,1-3.964,3.964c-2.745,1.089-9.258.837-12.292.837s-9.556.242-12.292-.837A7.037,7.037,0,0,1,4.6,35.38c-1.089-2.745-.837-9.258-.837-12.292S3.519,13.532,4.6,10.8A7.037,7.037,0,0,1,8.562,6.832c2.745-1.089,9.258-.837,12.292-.837s9.556-.242,12.292.837A7.037,7.037,0,0,1,37.11,10.8c1.089,2.745.837,9.258.837,12.292S38.2,32.644,37.11,35.38Z" transform="translate(0.005 -2.238)" fill="#1e3043"/>
</svg>
