<svg xmlns="http://www.w3.org/2000/svg" width="63.956" height="63.11" viewBox="0 0 63.956 63.11">
  <g id="Logo-SBS" transform="translate(-210.108 -19.9)">
    <path id="Caminho_21" data-name="Caminho 21" d="M244.272,540.69H233.889a.3.3,0,0,1-.175-.025.033.033,0,0,1-.008-.029,1.093,1.093,0,0,1,.1-.109q.521-.443,1.045-.88L247.5,529.089q1.176-.981,2.35-1.966l.048-.038c.346-.28.246-.232.653-.234h5.164l11.683-.011h3.7a1.137,1.137,0,0,1,.18.01c.01,0,.023.008.025.015s.008.044,0,.055a1.211,1.211,0,0,1-.156.137l-2.654,2.216q-1.836,1.542-3.667,3.089c-.658.546-1.321,1.1-1.98,1.653q-3.839,3.215-7.675,6.43c-.367.309-.245.273-.732.261H244.273Z" transform="translate(-1.542 -457.702)" fill="#fff"/>
    <path id="Caminho_22" data-name="Caminho 22" d="M86.417,249.31a1,1,0,0,1-.064.163c-.206.37-.41.742-.627,1.109-.307.534-.622,1.064-.929,1.6q-3.059,5.307-6.116,10.619-.742,1.287-1.481,2.578-.582,1.012-1.169,2.021a1.689,1.689,0,0,1-.119.173c0,.008-.046,0-.049,0a.934.934,0,0,1-.055-.172q-.255-1.463-.51-2.928c-.108-.617-.22-1.23-.329-1.85-.186-1.049-.378-2.093-.56-3.138-.153-.918-.32-1.832-.484-2.747-.115-.637-.216-1.276-.326-1.913s-.219-1.23-.328-1.853c-.07-.4-.137-.8-.21-1.194-.09-.518-.179-1.036-.273-1.553l-.336-1.913c-.053-.3-.107-.6-.158-.9-.012-.07-.022-.137-.031-.21a.306.306,0,0,1,.042-.2l.287-.5,1.848-3.206,3.844-6.642q.974-1.678,1.944-3.361l1.924-3.338q.288-.5.582-.995a.954.954,0,0,1,.071-.1.045.045,0,0,1,.027,0c.008,0,.022,0,.025.01a.684.684,0,0,1,.025.086c.077.418.154.836.227,1.254.115.657.224,1.314.337,1.973q.2,1.164.4,2.331c.109.627.221,1.254.331,1.881s.217,1.255.327,1.883l.344,1.939q.164.943.329,1.883c.112.648.221,1.3.333,1.943s.225,1.3.339,1.941c.072.41.149.82.22,1.23.048.273.09.538.137.807.056.329.113.657.169.986C86.391,249.1,86.4,249.2,86.417,249.31Z" transform="translate(137.85 -200.435)" fill="#fff"/>
    <path id="Caminho_23" data-name="Caminho 23" d="M346.751,194.307a.366.366,0,0,1-.2-.04l-1.083-.4-11.3-4.142-5.211-1.913-1.594-.586a1.5,1.5,0,0,1-.168-.07.247.247,0,0,1-.09-.078c-.055-.083-.105-.172-.156-.26l-4.394-7.588q-1.582-2.732-3.167-5.458-1.331-2.3-2.657-4.6a.364.364,0,0,1-.082-.191.027.027,0,0,1,.019-.02.3.3,0,0,1,.086.01c.361.13.723.261,1.083.393l2.959,1.087,9.916,3.619,5.3,1.932c.359.137.273.061.463.392q1.7,2.943,3.395,5.887,1.014,1.762,2.029,3.523c.41.717.832,1.434,1.246,2.153q1.725,3,3.45,6c.051.087.1.175.148.265a.258.258,0,0,1,.01.087Z" transform="translate(-73.146 -148.722)" fill="#fff"/>
    <path id="Caminho_24" data-name="Caminho 24" d="M218.235,526.94h3.7l5.129-.01a1.791,1.791,0,0,1,.242.011.027.027,0,0,1,.019.018c0,.019.007.045,0,.055-.066.063-.137.123-.2.182l-7.059,5.89-7.782,6.491-.747.616c-.038.031-.082.057-.124.086a.055.055,0,0,1-.074-.029c-.025-.109-.052-.217-.071-.327q-.18-1.029-.357-2.06c-.112-.648-.217-1.3-.329-1.943s-.223-1.254-.332-1.883c-.089-.518-.172-1.037-.262-1.555l-.41-2.329c-.111-.638-.22-1.275-.332-1.913-.048-.273-.1-.557-.148-.836-.019-.109-.031-.22-.044-.331-.008-.071.027-.109.107-.113.172-.008.344-.018.515-.018.41,0,.829.01,1.245.01l4.126-.011h3.187Z" transform="translate(19.744 -457.78)" fill="#fff"/>
    <path id="Caminho_25" data-name="Caminho 25" d="M264.135,166.43a.727.727,0,0,1,.176.249l1.2,2.074q2.812,4.859,5.623,9.709,1.639,2.82,3.264,5.644.061.1.115.213a.053.053,0,0,1-.012.052.064.064,0,0,1-.055.011c-.332-.119-.665-.239-1-.361l-10.73-3.937q-2.148-.79-4.3-1.571c-.273-.1-.546-.2-.82-.306a1.639,1.639,0,0,1-.164-.077.063.063,0,0,1-.021-.081,1.152,1.152,0,0,1,.052-.109c.044-.079.089-.158.137-.238l3.163-5.492q1.042-1.814,2.087-3.627l1.093-1.891c.041-.07.082-.137.127-.206A.311.311,0,0,1,264.135,166.43Z" transform="translate(-22.007 -146.53)" fill="#fff"/>
    <path id="Caminho_26" data-name="Caminho 26" d="M113.255,390.1c.019.089.042.176.057.266q.145.82.288,1.639c.109.627.214,1.254.322,1.883l.344,1.971.324,1.883q.175,1,.346,2c.137.768.261,1.534.395,2.3.111.637.228,1.273.34,1.913.068.388.137.777.2,1.167l.273,1.583q.089.522.174,1.047a.085.085,0,0,1-.081.1h-9.257c-.567,0-1.134.008-1.7.01h-2.063a.982.982,0,0,1-.179-.019.053.053,0,0,1-.026-.046.725.725,0,0,1,.056-.137l.788-1.366.331-.579,6.075-10.539q1.053-1.825,2.105-3.653c.231-.41.459-.809.683-1.213a1.561,1.561,0,0,1,.137-.2A.322.322,0,0,1,113.255,390.1Z" transform="translate(111.299 -339.643)" fill="#fff"/>
    <path id="Caminho_27" data-name="Caminho 27" d="M408.439,327.4c-.019-.007-.045-.008-.053-.022-.052-.074-.1-.149-.149-.228l-1.992-3.439-1.337-2.309q-2.646-4.567-5.29-9.135c-.046-.079-.09-.158-.137-.238-.015-.027-.026-.06,0-.078a.114.114,0,0,1,.085-.008c.137.045.266.094.4.137l9.082,3.332c1.053.387,2.108.769,3.161,1.156,1.167.428,2.333.861,3.5,1.29q1.281.471,2.563.939c.085.031.169.067.253.1a.059.059,0,0,1,0,.1l-.137.119-2.2,1.85-4.31,3.6q-1.093.911-2.186,1.828c-.318.265-.634.534-.956.8-.077.064-.158.126-.239.186A.19.19,0,0,1,408.439,327.4Z" transform="translate(-144.656 -272.157)" fill="#fff"/>
    <path id="Caminho_28" data-name="Caminho 28" d="M156.225,222.57c.046.012.085.022.122.036q1.156.418,2.309.839l7.941,2.913,1.736.643c.057.02.113.044.169.067a.068.068,0,0,1,.042.1c-.046.089-.094.179-.145.273l-3.65,6.334-4.466,7.753q-.25.433-.505.863a.629.629,0,0,1-.093.116.06.06,0,0,1-.051-.011c-.027-.108-.055-.216-.074-.325l-.273-1.582c-.072-.418-.137-.837-.214-1.255q-.164-.956-.329-1.913l-.273-1.583-.209-1.194-.34-1.941-.344-1.971c-.108-.618-.213-1.23-.321-1.853-.116-.667-.234-1.333-.348-2-.072-.419-.137-.837-.213-1.255-.105-.608-.217-1.215-.322-1.821-.064-.378-.122-.758-.179-1.138C156.183,222.629,156.209,222.6,156.225,222.57Z" transform="translate(65.383 -195)" fill="#fff"/>
    <path id="Caminho_29" data-name="Caminho 29" d="M376.992,436.44a.82.82,0,0,1,.172.253q.683,1.167,1.354,2.336,1.818,3.142,3.637,6.272.639,1.1,1.275,2.206c.045.079.082.161.123.243.01.019-.02.066-.044.067-.09,0-.18.015-.273.015h-9.041l-5.1.011-4,.012h-1.585a.5.5,0,0,1-.09,0,.066.066,0,0,1-.046-.03.057.057,0,0,1,.007-.053c.034-.036.074-.068.112-.1l8.037-6.708,5.145-4.3c.078-.066.154-.13.235-.191A.274.274,0,0,1,376.992,436.44Z" transform="translate(-113.495 -379.653)" fill="#fff"/>
    <path id="Caminho_30" data-name="Caminho 30" d="M112.551,527.04h4.066c.708,0,1.415-.007,2.123-.01a2.232,2.232,0,0,1,.3.014.1.1,0,0,1,.087.075c.026.108.046.217.066.327q.284,1.639.567,3.287c.171.985.347,1.97.519,2.956.112.646.219,1.3.332,1.943.145.836.294,1.672.44,2.508l.273,1.583a1.337,1.337,0,0,1,.012.182c0,.008,0,.025-.011.026s-.044.014-.055,0a1.94,1.94,0,0,1-.194-.146q-1.081-.906-2.16-1.814l-1.913-1.6c-.635-.534-1.266-1.071-1.9-1.6l-3.581-3.006q-2.671-2.246-5.338-4.5a1.389,1.389,0,0,1-.146-.15s.01-.045.018-.047a1.16,1.16,0,0,1,.18-.016H107.6l4.945-.012Z" transform="translate(108.683 -457.867)" fill="#fff"/>
    <path id="Caminho_31" data-name="Caminho 31" d="M475.156,391.282c-.01,0-.022,0-.027-.008a.824.824,0,0,1-.071-.1q-.283-.484-.564-.97-.653-1.135-1.3-2.257l-3.962-6.85c-.122-.21-.246-.419-.367-.628a.776.776,0,0,1-.067-.137.108.108,0,0,1,.011-.085.553.553,0,0,1,.105-.107l3.588-2.993L476.271,374q1.046-.873,2.1-1.745a1.317,1.317,0,0,1,.119-.093.066.066,0,0,1,.055-.01c.031.012.031.045.027.075q-.09.505-.178,1.015l-.34,1.913-.525,2.955q-.167.941-.329,1.883l-.217,1.23c-.137.736-.257,1.473-.388,2.209-.094.527-.193,1.053-.287,1.581-.087.488-.169.975-.257,1.463l-.41,2.3c-.137.766-.265,1.507-.4,2.262-.014.079-.037.157-.057.235C475.179,391.279,475.164,391.281,475.156,391.282Z" transform="translate(-204.51 -324.149)" fill="#fff"/>
    <path id="Caminho_32" data-name="Caminho 32" d="M182.238,169.625a.482.482,0,0,1-.1.22c-.3.518-.6,1.034-.893,1.551q-2.094,3.642-4.191,7.283-.452.788-.908,1.577a2.518,2.518,0,0,1-.145.231.093.093,0,0,1-.078.03,1.514,1.514,0,0,1-.2-.064l-2.537-.932-5.381-1.973-3.358-1.23a2.694,2.694,0,0,1-.247-.112c-.007,0,0-.045,0-.051a1.269,1.269,0,0,1,.164-.075l1.624-.59c.693-.253,1.385-.508,2.079-.76l9.836-3.57q1.98-.719,3.962-1.443c.086-.031.172-.06.258-.089a.163.163,0,0,1,.119,0Z" transform="translate(58.47 -149.282)" fill="#fff"/>
    <path id="Caminho_33" data-name="Caminho 33" d="M296.26,169.638c-.011.01.01-.03-.01,0Z" transform="translate(-55.542 -149.289)" fill="#fff"/>
    <path id="Caminho_34" data-name="Caminho 34" d="M674.84,207.908l.018.007-.011-.015Z" transform="translate(-401.243 -162.316)" fill="#fff"/>
  </g>
</svg>
