<svg xmlns="http://www.w3.org/2000/svg" width="110.62" height="100.921" viewBox="0 0 110.62 100.921">
  <g id="modelagem-icone" transform="translate(-427 -805)">
    <path id="Caminho_1" data-name="Caminho 1" d="M103.14,22.446H7.48A7.488,7.488,0,0,0,0,29.926V93.6a7.488,7.488,0,0,0,7.48,7.48H20.309a1.62,1.62,0,0,0,0-3.241H7.48A4.244,4.244,0,0,1,3.241,93.6V88.57A7.436,7.436,0,0,0,7.48,89.892h95.66a7.436,7.436,0,0,0,4.239-1.322V93.6a4.244,4.244,0,0,1-4.239,4.239H26.791a1.62,1.62,0,1,0,0,3.241H47.008l-4.671,10.841H39.4a7,7,0,0,0-6.993,6.993v1.051a3.409,3.409,0,0,0,3.4,3.4H74.8a3.409,3.409,0,0,0,3.4-3.4v-1.051a7,7,0,0,0-6.993-6.993H68.283l-4.671-10.841H103.14a7.488,7.488,0,0,0,7.48-7.48V29.926a7.488,7.488,0,0,0-7.48-7.48ZM74.967,118.911v1.051a.164.164,0,0,1-.164.164H35.817a.164.164,0,0,1-.164-.164v-1.051a3.756,3.756,0,0,1,3.752-3.752H71.215a3.756,3.756,0,0,1,3.752,3.752Zm-10.214-6.993H45.866l4.671-10.841h9.546ZM103.14,86.651H7.48a4.244,4.244,0,0,1-4.239-4.239V29.926A4.244,4.244,0,0,1,7.48,25.687h95.66a4.244,4.244,0,0,1,4.239,4.239V82.412A4.244,4.244,0,0,1,103.14,86.651Z" transform="translate(427 782.554)" fill="#fff"/>
    <path id="Caminho_2" data-name="Caminho 2" d="M228.82,75.789l2.353-1.338v5.695a1.62,1.62,0,0,0,3.241,0V74.451l2.353,1.338a1.62,1.62,0,0,0,1.6-2.817c-5.233-2.975-4.822-2.751-4.984-2.814a1.623,1.623,0,0,0-1.383.094l-.009,0-4.775,2.715a1.62,1.62,0,1,0,1.6,2.817Z" transform="translate(249.515 745.237)" fill="#fff"/>
    <path id="Caminho_3" data-name="Caminho 3" d="M147.31,235.213l-4.933,2.841v-2.689a1.62,1.62,0,0,0-3.241,0c0,5.766-.247,6.309.824,6.9l4.737,2.766a1.62,1.62,0,0,0,1.634-2.8l-2.344-1.369,4.941-2.845a1.62,1.62,0,0,0-1.617-2.809Z" transform="translate(317.944 616.908)" fill="#fff"/>
    <path id="Caminho_4" data-name="Caminho 4" d="M332.684,233.745a1.62,1.62,0,0,0-1.62,1.62v2.689l-4.933-2.841a1.62,1.62,0,1,0-1.617,2.808l4.941,2.845-2.344,1.369a1.62,1.62,0,1,0,1.634,2.8c4.4-2.646,5.247-2.747,5.509-3.777.107-.418.017-.393.051-5.892A1.62,1.62,0,0,0,332.684,233.745Z" transform="translate(173.236 616.907)" fill="#fff"/>
    <path id="Caminho_5" data-name="Caminho 5" d="M219.931,140.117l-11.793-6.81a1.621,1.621,0,0,0-1.621,0l-11.793,6.81a1.621,1.621,0,0,0-.81,1.4c0,.041,0,.081.008.121v13.5a1.62,1.62,0,0,0,.81,1.4l11.669,6.736c.036.025.07.05.108.072a1.619,1.619,0,0,0,.81.217h.017a1.619,1.619,0,0,0,.81-.217c.038-.022.072-.048.108-.072l11.669-6.736a1.62,1.62,0,0,0,.81-1.4v-13.5c0-.04.008-.08.008-.121A1.62,1.62,0,0,0,219.931,140.117Zm-12.6-3.535,8.548,4.936-8.548,4.935-8.548-4.935Zm-10.165,7.75,8.536,4.929v9.87l-8.536-4.928Zm11.794,14.8v-9.87l8.536-4.929V154.2Z" transform="translate(274.982 695.815)" fill="#fff"/>
    <path id="Caminho_6" data-name="Caminho 6" d="M44.195,65.678H36.633A3.136,3.136,0,0,0,33.5,68.811v38.365a3.136,3.136,0,0,0,3.133,3.133h7.562a3.136,3.136,0,0,0,3.133-3.133V68.811A3.136,3.136,0,0,0,44.195,65.678Zm-.108,41.39H36.741V68.919h7.346Z" transform="translate(400.738 748.662)" fill="#fff"/>
    <path id="Caminho_7" data-name="Caminho 7" d="M56.787,105.981h1.224a1.62,1.62,0,1,0,0-3.241H56.787a1.62,1.62,0,1,0,0,3.241Z" transform="translate(383.752 719.608)" fill="#fff"/>
    <path id="Caminho_8" data-name="Caminho 8" d="M56.787,145.131h1.224a1.62,1.62,0,1,0,0-3.241H56.787a1.62,1.62,0,1,0,0,3.241Z" transform="translate(383.752 688.916)" fill="#fff"/>
    <path id="Caminho_9" data-name="Caminho 9" d="M56.787,184.281h1.224a1.62,1.62,0,1,0,0-3.241H56.787a1.62,1.62,0,1,0,0,3.241Z" transform="translate(383.752 658.225)" fill="#fff"/>
    <path id="Caminho_10" data-name="Caminho 10" d="M56.787,223.431h1.224a1.62,1.62,0,0,0,0-3.241H56.787a1.62,1.62,0,0,0,0,3.241Z" transform="translate(383.752 627.533)" fill="#fff"/>
    <path id="Caminho_11" data-name="Caminho 11" d="M381.343,56.066H360.561a2.7,2.7,0,0,0-2.7,2.7V76.386a2.7,2.7,0,0,0,2.7,2.7h20.782a2.7,2.7,0,0,0,2.7-2.7V58.767A2.7,2.7,0,0,0,381.343,56.066Zm-.54,19.78H361.1V59.307h19.7Z" transform="translate(146.457 756.198)" fill="#fff"/>
    <path id="Caminho_12" data-name="Caminho 12" d="M388.575,92.082h4.969a1.62,1.62,0,0,0,0-3.241h-4.969a1.62,1.62,0,0,0,0,3.241Z" transform="translate(123.648 730.504)" fill="#fff"/>
    <path id="Caminho_13" data-name="Caminho 13" d="M388.575,118.082h10.371a1.62,1.62,0,1,0,0-3.241H388.575a1.62,1.62,0,0,0,0,3.241Z" transform="translate(123.648 710.121)" fill="#fff"/>
  </g>
</svg>
